<svg xmlns="http://www.w3.org/2000/svg" width="143" height="32" viewBox="0 0 143 32">
  <g fill="none" fill-rule="evenodd">
    <path fill="#FFF" d="M28.793456 20.0318043L28.793456 14.8061162 20.6498523 28.4509684 16.5780504 28.4509684 8.43444672 15.3867482 8.43444672 31.6444444 0 31.6444444 0 0 7.56191775 0 18.6139514 18.2899083 29.665985 0 37.2279027 0 37.2279027 20.0318043 28.793456 20.0318043zM58.2256794 31.6444444C55.0685181 31.6444444 52.2215923 30.9707027 49.6308613 29.7013645 47.1763315 28.2756953 45.1942945 26.3993608 43.8085652 23.8721248 42.3112883 21.5889176 41.5905476 18.8649725 41.5905476 15.8222222 41.5905476 12.779472 42.3112883 10.0555269 43.8085652 7.77231969 45.1942945 5.24508362 47.1763315 3.36874911 49.6308613 1.94307992 52.2215923.673741736 55.0685181 0 58.2256794 0 61.0075108 0 63.5012737.492628366 65.7114887 1.38791423 67.9411032 2.46317139 69.7861995 3.88310021 71.2565326 5.82923977L65.7114887 10.825731C63.847234 8.31679724 61.4687896 7.12869353 58.7801838 7.217154 57.0289602 7.12869353 55.5658565 7.49092027 54.3441486 8.32748538 52.999981 8.93984896 52.0053588 9.96132837 51.2943745 11.3808967 50.5926858 12.5983786 50.2395228 14.1124864 50.1853657 15.8222222 50.2395228 17.5319581 50.5926858 19.0460659 51.2943745 20.2635478 52.0053588 21.6831161 52.999981 22.7045955 54.3441486 23.3169591 55.5658565 24.1535242 57.0289602 24.5157509 58.7801838 24.4272904 61.4687896 24.5157509 63.847234 23.3276472 65.7114887 20.8187135L71.2565326 25.8152047C69.7861995 27.7613442 67.9411032 29.1812731 65.7114887 30.2565302 63.5012737 31.1518161 61.0075108 31.6444444 58.2256794 31.6444444zM88.707112 23.2252803L83.7627812 23.2252803 83.7627812 31.6444444 74.7466485 31.6444444 74.7466485 0 89.288798 0C92.2047576 0 94.7095897.47466192 96.8507157 1.45158002 98.9602775 2.37333808 100.599804 3.72951499 101.795047 5.51600408 102.90732 7.25562786 103.484191 9.32756482 103.540105 11.6126402 103.484191 13.9989109 102.945272 15.9955047 101.795047 17.7092762 100.789566 19.4010667 99.2487149 20.7346407 97.1415587 21.7737003L104.121791 31.6444444 94.5239718 31.6444444 88.707112 23.2252803zM94.8148148 11.9029562C94.8148148 10.445232 94.3375708 9.29719709 93.3605999 8.41916412 92.4285661 7.6657546 91.0122289 7.2579001 88.997955 7.2579001L84.0536242 7.2579001 84.0536242 16.5480122 88.997955 16.5480122C91.0122289 16.5480122 92.4285661 16.1477106 93.3605999 15.3867482 94.3375708 14.54648 94.8148148 13.405998 94.8148148 11.9029562zM125.144126 0C128.258499 0 131.182133.680986271 133.764814 1.94307992 136.370014 3.40497221 138.407032 5.28855126 139.882722 7.77231969 141.367348 10.0989945 142.107416 12.8084505 142.107416 15.8222222 142.107416 18.8359939 141.367348 21.5454499 139.882722 23.8721248 138.407032 26.3558932 136.370014 28.2394722 133.764814 29.7013645 131.182133 30.9634582 128.258499 31.6444444 125.144126 31.6444444 121.751666 31.6444444 118.828032 30.9634582 116.245351 29.7013645 113.640152 28.2394722 111.603133 26.3558932 110.127443 23.8721248 108.642817 21.5454499 107.902749 18.8359939 107.902749 15.8222222 107.902749 12.8084505 108.642817 10.0989945 110.127443 7.77231969 111.603133 5.28855126 113.640152 3.40497221 116.245351 1.94307992 118.828032.680986271 121.751666 0 125.144126 0zM125.144126 7.217154C123.471429 7.217154 122.082481 7.58147784 120.972825 8.32748538 119.593911 9.03879507 118.610073 10.0661883 117.913871 11.3808967 117.16323 12.7185057 116.801524 14.2413793 116.801524 16.0998051 116.801524 17.680648 117.16323 19.2035216 117.913871 20.5411306 118.610073 21.855839 119.593911 22.8832322 120.972825 23.5945419 122.082481 24.3405495 123.471429 24.7048733 125.144126 24.7048733 126.538736 24.7048733 127.927684 24.3405495 129.03734 23.5945419 130.416254 22.8832322 131.400093 21.855839 132.096294 20.5411306 132.846935 19.2035216 133.208641 17.680648 133.208641 16.0998051 133.208641 14.2413793 132.846935 12.7185057 132.096294 11.3808967 131.400093 10.0661883 130.416254 9.03879507 129.03734 8.32748538 127.927684 7.58147784 126.538736 7.217154 125.144126 7.217154z"/>
    <ellipse cx="33.011" cy="27.435" fill="#FDD835" rx="4.217" ry="4.21"/>
  </g>
</svg>
