<svg xmlns="http://www.w3.org/2000/svg" width="808" height="106" viewBox="0 0 808 106">
  <path fill="#FFF" d="M50.22,87.96 C51.12,87.96 51.87,87.66 52.47,87.06 C53.07,86.46 53.37,85.71 53.37,84.81 C53.37,83.67 52.245,82.02 49.995,79.86 C47.745,77.7 46.62,75.81 46.62,74.19 C46.62,73.35 47.01,72.09 47.79,70.41 C48.57,68.73 48.96,67.44 48.96,66.54 C48.96,64.26 47.85,62.94 45.63,62.58 L45.63,62.58 L44.28,63.21 C43.68,64.17 43.38,65.19 43.38,66.27 C43.38,66.87 43.47,67.53 43.65,68.25 C42.51,69.87 41.88,71.55 41.76,73.29 C37.8,76.05 34.14,77.43 30.78,77.43 C25.02,77.43 20.64,73.41 17.64,65.37 C15.42,59.43 14.31,52.98 14.31,46.02 C14.31,35.1 15.93,27.45 19.17,23.07 C20.25,21.57 21.81,20.22 23.85,19.02 C25.89,17.82 27.78,17.22 29.52,17.22 C34.44,17.22 39.09,19.26 43.47,23.34 C40.89,30.3 39.6,36.27 39.6,41.25 C39.6,45.81 41.34,48.09 44.82,48.09 C47.7,48.09 49.14,46.59 49.14,43.59 C49.14,41.13 48.06,37.29 45.9,32.07 C46.32,29.67 47.85,25.44 50.49,19.38 C52.83,13.98 54,9.66 54,6.42 C54,5.34 53.565,4.305 52.695,3.315 C51.825,2.325 50.85,1.83 49.77,1.83 C48.87,1.83 48.135,2.355 47.565,3.405 C46.995,4.455 46.71,5.46 46.71,6.42 C46.71,7.08 46.875,8.025 47.205,9.255 C47.535,10.485 47.7,11.43 47.7,12.09 C47.7,13.59 47.01,15.81 45.63,18.75 C40.65,14.43 35.85,12.36 31.23,12.54 C26.55,12.72 23.4,13.08 21.78,13.62 C15.18,15.9 9.99,20.4 6.21,27.12 C2.73,33.24 0.99,39.99 0.99,47.37 C0.99,56.25 3.45,64.11 8.37,70.95 C13.83,78.57 20.82,82.38 29.34,82.38 C34.02,82.38 38.43,81.06 42.57,78.42 L42.57,78.42 L43.65,80.49 C44.67,85.47 46.86,87.96 50.22,87.96 Z M68.9025,81.21 C76.8225,79.11 81.8025,76.68 83.8425,73.92 C85.7025,71.34 86.6325,65.94 86.6325,57.72 C86.6325,48.6 83.9025,44.04 78.4425,44.04 C76.0425,44.04 72.7125,45.81 68.4525,49.35 L68.4525,49.35 L68.4525,17.31 L62.8725,13.8 L55.4925,17.49 L61.1625,21.09 L61.1625,66.81 L54.8625,69.96 L68.9025,81.21 Z M75.0225,76.71 L68.4525,71.49 L68.4525,52.77 C71.5125,50.49 73.5225,49.35 74.4825,49.35 C77.7225,49.35 79.3425,52.86 79.3425,59.88 C79.3425,64.38 79.2225,67.41 78.9825,68.97 C78.4425,72.57 77.1225,75.15 75.0225,76.71 L75.0225,76.71 Z M101.445,80.94 L108.825,77.25 L102.795,73.2 L102.795,51.33 L104.775,50.07 C107.415,51.09 109.305,53.04 110.445,55.92 L110.445,55.92 L117.375,52.5 C115.935,48.06 112.995,45.24 108.555,44.04 C105.435,46.2 103.125,47.79 101.625,48.81 L101.625,48.81 L96.225,43.59 L88.665,47.28 L95.505,54.12 L95.505,71.94 L91.365,74.01 L101.445,80.94 Z M126.7875,38.37 L133.9875,34.77 L126.3375,27.48 L119.1375,31.08 L126.7875,38.37 Z M129.9375,80.76 L137.2275,77.16 L131.1975,72.75 L131.1975,48.72 L124.8975,43.59 L117.6975,47.28 L123.9975,52.32 L123.9075,70.68 L119.3175,72.93 L129.9375,80.76 Z M150.15,81.12 C153.51,81.12 156.405,79.935 158.835,77.565 C161.265,75.195 162.48,72.33 162.48,68.97 C162.48,67.59 162.33,66.03 162.03,64.29 C158.97,62.49 155.91,60.72 152.85,58.98 C152.25,58.5618182 151.695455,58.1470799 151.186364,57.7357851 L151.093,57.66 L151.290143,57.5657907 C154.016468,56.2709037 155.983127,55.3558502 157.190119,54.8206302 L157.35,54.75 C160.05,53.25 161.4,51.66 161.4,49.98 C161.4,47.94 160.545,46.29 158.835,45.03 C157.125,43.77 155.22,43.14 153.12,43.14 C151.26,43.14 149.1,43.92 146.64,45.48 C144,47.22 142.02,48.54 140.7,49.44 C139.98,50.82 139.62,52.17 139.62,53.49 C139.62,56.85 141.51,59.82 145.29,62.4 C149.55,65.04 152.79,66.99 155.01,68.25 C155.19,69.39 155.28,70.47 155.28,71.49 C155.28,73.41 154.92,74.97 154.2,76.17 C151.2,76.11 148.08,74.82 144.84,72.3 L144.84,72.3 L137.64,75.9 C142.08,79.38 146.25,81.12 150.15,81.12 Z M150.483,57.144 L150.319091,56.9991736 C148.046364,54.9633609 146.91,53.0136364 146.91,51.15 C146.91,50.43 147.06,49.68 147.36,48.9 L147.36,48.9 L147.54,48.81 C147.78,48.81 148.17,48.765 148.71,48.675 C149.25,48.585 149.67,48.54 149.97,48.54 C151.05,48.54 152.01,48.855 152.85,49.485 C153.69,50.115 154.11,50.94 154.11,51.96 C154.11,52.68 153.75,53.52 153.03,54.48 C152.134,55.44 151.323333,56.2890667 150.598,57.0272 L150.483,57.144 Z M179.5425,82.11 L193.8525,74.19 L191.5125,72.48 L184.2225,76.53 L179.9925,73.92 L180.0825,48.18 L189.9825,48.18 L189.8925,44.49 L180.0825,44.49 L180.0825,25.59 L172.7925,29.19 L172.7925,44.58 L162.9825,44.49 L163.0725,48.27 L172.7925,48.27 L172.7925,72.03 L167.8425,74.55 L179.5425,82.11 Z M216.315,80.94 L223.425,77.43 L220.095,74.1 L220.185,50.61 L222.525,49.26 L226.305,52.5 L226.305,72.3 L223.155,73.83 L229.725,80.4 L236.925,76.89 L233.595,73.56 L233.595,48.9 L226.485,43.32 L219.105,48 L213.075,43.32 L205.785,47.91 L200.025,43.68 L192.735,47.28 L199.575,52.32 L199.575,72.3 L196.155,73.92 L202.995,80.94 L210.375,77.34 L206.865,73.83 L206.775,50.61 L209.205,49.26 L212.895,52.32 L212.895,72.03 L209.295,73.83 L216.315,80.94 Z M251.3775,80.76 C253.1775,80.76 256.2975,79.62 260.7375,77.34 L260.7375,77.34 L265.3275,80.67 L272.6175,76.98 L265.6875,72.03 L265.6875,43.86 L258.4875,47.55 L258.4875,47.91 C257.2875,46.71 255.4575,45.45 252.9975,44.13 C248.2575,46.41 244.7175,48.15 242.3775,49.35 L242.3775,49.35 L242.3775,72.21 L239.4975,73.65 C242.3775,75.75 244.3875,77.22 245.5275,78.06 C248.1075,79.86 250.0575,80.76 251.3775,80.76 Z M255.3375,75.63 C255.0375,75.63 253.1475,74.4 249.6675,71.94 L249.6675,71.94 L249.6675,50.16 C254.0475,52.68 256.9875,55.02 258.4875,57.18 L258.4875,57.18 L258.4875,74.37 C257.3475,75.21 256.2975,75.63 255.3375,75.63 Z M284.37,81.12 C287.73,81.12 290.625,79.935 293.055,77.565 C295.485,75.195 296.7,72.33 296.7,68.97 C296.7,67.59 296.55,66.03 296.25,64.29 C293.19,62.49 290.13,60.72 287.07,58.98 C286.47,58.5618182 285.915455,58.1470799 285.406364,57.7357851 L285.313,57.66 L285.510143,57.5657907 C288.236468,56.2709037 290.203127,55.3558502 291.410119,54.8206302 L291.57,54.75 C294.27,53.25 295.62,51.66 295.62,49.98 C295.62,47.94 294.765,46.29 293.055,45.03 C291.345,43.77 289.44,43.14 287.34,43.14 C285.48,43.14 283.32,43.92 280.86,45.48 C278.22,47.22 276.24,48.54 274.92,49.44 C274.2,50.82 273.84,52.17 273.84,53.49 C273.84,56.85 275.73,59.82 279.51,62.4 C283.77,65.04 287.01,66.99 289.23,68.25 C289.41,69.39 289.5,70.47 289.5,71.49 C289.5,73.41 289.14,74.97 288.42,76.17 C285.42,76.11 282.3,74.82 279.06,72.3 L279.06,72.3 L271.86,75.9 C276.3,79.38 280.47,81.12 284.37,81.12 Z M284.703,57.144 L284.539091,56.9991736 C282.266364,54.9633609 281.13,53.0136364 281.13,51.15 C281.13,50.43 281.28,49.68 281.58,48.9 L281.58,48.9 L281.76,48.81 C282,48.81 282.39,48.765 282.93,48.675 C283.47,48.585 283.89,48.54 284.19,48.54 C285.27,48.54 286.23,48.855 287.07,49.485 C287.91,50.115 288.33,50.94 288.33,51.96 C288.33,52.68 287.97,53.52 287.25,54.48 C286.354,55.44 285.543333,56.2890667 284.818,57.0272 L284.703,57.144 Z M313.185,99.93 C316.185,99.93 319.515,97.05 323.175,91.29 C326.055,86.73 328.125,82.38 329.385,78.24 C334.545,80.82 339.255,82.11 343.515,82.11 C348.855,82.11 353.835,80.28 358.455,76.62 C363.255,72.72 365.775,68.16 366.015,62.94 C366.195,58.26 364.395,54.12 360.615,50.52 C359.355,49.38 355.275,46.53 348.375,41.97 C345.075,39.81 342.945,38.4 341.985,37.74 C334.725,32.76 331.095,28.32 331.095,24.42 C331.095,18.84 334.605,16.05 341.625,16.05 C344.265,16.05 347.055,16.59 349.995,17.67 L349.995,17.67 L357.915,21.09 C357.615,23.49 357.465,25.32 357.465,26.58 C357.465,29.04 358.125,31.89 359.445,35.13 C361.065,39.15 362.985,41.16 365.205,41.16 C367.785,41.16 369.075,40.23 369.075,38.37 C369.075,36.51 366.795,34.05 362.235,30.99 C361.695,29.55 361.425,27.84 361.425,25.86 C361.425,23.4 361.965,20.31 363.045,16.59 C364.185,12.51 365.505,9.81 367.005,8.49 C368.745,7.11 369.975,6.18 370.695,5.7 C372.555,4.32 373.485,3.06 373.485,1.92 C373.485,0.78 372.555,0.21 370.695,0.21 C368.415,0.21 365.955,2.46 363.315,6.96 C361.395,10.2 359.895,13.59 358.815,17.13 C351.975,13.83 346.185,12.18 341.445,12.18 C337.905,12.18 334.545,12.96 331.365,14.52 L331.365,14.52 L331.005,14.16 C328.005,16.92 325.995,19.02 324.975,20.46 C323.235,22.92 322.365,25.68 322.365,28.74 C322.365,35.16 325.995,41.04 333.255,46.38 C341.295,51.96 347.385,56.07 351.525,58.71 C354.465,60.81 356.175,63.3 356.655,66.18 C356.775,66.6 356.835,67.05 356.835,67.53 C356.835,70.53 355.275,73.11 352.155,75.27 C349.335,77.25 346.365,78.24 343.245,78.24 C339.225,78.24 334.875,76.89 330.195,74.19 C330.435,70.83 329.385,66.6 327.045,61.5 C324.465,55.86 321.705,53.04 318.765,53.04 C317.805,53.04 316.875,53.325 315.975,53.895 C315.075,54.465 314.625,55.2 314.625,56.1 C314.625,57.6 315.81,58.965 318.18,60.195 C320.55,61.425 322.335,62.31 323.535,62.85 C325.455,65.79 326.415,68.94 326.415,72.3 C326.415,75.9 325.515,79.56 323.715,83.28 C321.915,87 319.635,90.12 316.875,92.64 C312.975,93.54 310.515,94.77 309.495,96.33 L309.495,96.33 L309.405,97.14 C309.405,99 310.665,99.93 313.185,99.93 Z M372.1875,104.16 L382.9875,93.27 L382.9875,78.6 L387.5775,80.85 C392.322955,76.1590909 395.952707,72.5590909 398.466756,70.05 L399.1875,69.33 L399.2775,51.06 C397.1175,46.5 394.2975,44.22 390.8175,44.22 C389.5575,44.22 386.6175,45.48 381.9975,48 L381.9975,48 L377.4975,43.32 L370.3875,46.92 L375.7875,52.59 L375.7875,96.06 L370.0275,101.82 L372.1875,104.16 Z M390.1875,74.37 L383.0775,70.95 L383.0775,50.52 C384.6375,49.74 385.7175,49.35 386.3175,49.35 C388.4775,49.35 390.3375,50.94 391.8975,54.12 L391.8975,54.12 L391.8975,72.75 L390.1875,74.37 Z M410.94,38.37 L418.14,34.77 L410.49,27.48 L403.29,31.08 L410.94,38.37 Z M414.09,80.76 L421.38,77.16 L415.35,72.75 L415.35,48.72 L409.05,43.59 L401.85,47.28 L408.15,52.32 L408.06,70.68 L403.47,72.93 L414.09,80.76 Z M433.3125,80.94 L440.6925,77.25 L434.6625,73.2 L434.6625,51.33 L436.6425,50.07 C439.2825,51.09 441.1725,53.04 442.3125,55.92 L442.3125,55.92 L449.2425,52.5 C447.8025,48.06 444.8625,45.24 440.4225,44.04 C437.3025,46.2 434.9925,47.79 433.4925,48.81 L433.4925,48.81 L428.0925,43.59 L420.5325,47.28 L427.3725,54.12 L427.3725,71.94 L423.2325,74.01 L433.3125,80.94 Z M458.655,38.37 L465.855,34.77 L458.205,27.48 L451.005,31.08 L458.655,38.37 Z M461.805,80.76 L469.095,77.16 L463.065,72.75 L463.065,48.72 L456.765,43.59 L449.565,47.28 L455.865,52.32 L455.775,70.68 L451.185,72.93 L461.805,80.76 Z M483.0075,82.11 L497.3175,74.19 L494.9775,72.48 L487.6875,76.53 L483.4575,73.92 L483.5475,48.18 L493.4475,48.18 L493.3575,44.49 L483.5475,44.49 L483.5475,25.59 L476.2575,29.19 L476.2575,44.58 L466.4475,44.49 L466.5375,48.27 L476.2575,48.27 L476.2575,72.03 L471.3075,74.55 L483.0075,82.11 Z M567.0825,82.02 C568.6425,82.02 569.4225,81.18 569.4225,79.5 C569.4225,77.7 568.4325,76.17 566.4525,74.91 L566.4525,74.91 L566.6325,74.55 C563.8725,73.41 561.4725,72.6 559.4325,72.12 C559.4925,64.62 560.1225,57.84 561.3225,51.78 L561.3225,51.78 L563.3025,50.52 C568.1025,49.44 570.5025,47.31 570.5025,44.13 C570.5025,42.45 569.7225,41.61 568.1625,41.61 C567.3825,41.61 566.4225,42.12 565.2825,43.14 C561.8025,46.2 559.6125,48.03 558.7125,48.63 C556.3125,50.13 553.5225,50.88 550.3425,50.88 C546.7425,50.88 543.0825,49.74 539.3625,47.46 C536.8425,43.98 534.7425,42.24 533.0625,42.24 C531.5625,42.24 530.8125,43.11 530.8125,44.85 C530.8125,46.83 531.5925,48.3 533.1525,49.26 L533.1525,49.26 L537.9225,51.15 C543.6225,53.43 547.4025,54.63 549.2625,54.75 C550.2825,60.39 550.7925,66.03 550.7925,71.67 L550.7925,71.67 L550.7925,72.3 C548.0325,73.98 546.6525,74.82 546.6525,74.82 C544.1325,76.32 542.4525,77.07 541.6125,77.07 C534.3525,76.89 528.9825,73.2 525.5025,66 C522.9225,60.6 521.6325,53.94 521.6325,46.02 C521.6325,35.1 523.2825,27.36 526.5825,22.8 C527.6625,21.3 529.2675,19.92 531.3975,18.66 C533.5275,17.4 535.4625,16.77 537.2025,16.77 C542.9625,16.77 548.6025,19.74 554.1225,25.68 C555.9225,23.04 557.4825,19.665 558.8025,15.555 C560.1225,11.445 560.7825,7.83 560.7825,4.71 C560.7825,3.51 560.4075,2.325 559.6575,1.155 C558.9075,-0.015 557.9925,-0.6 556.9125,-0.6 C555.1725,-0.6 554.3025,0.54 554.3025,2.82 C554.3025,3.54 554.9625,5.67 556.2825,9.21 C556.1025,12.87 555.1725,16.29 553.4925,19.47 C548.6325,15.09 543.1725,12.9 537.1125,12.9 C528.7125,12.9 521.8125,16.68 516.4125,24.24 C511.6125,30.96 509.2125,38.67 509.2125,47.37 C509.2125,56.07 511.6125,63.81 516.4125,70.59 C521.7525,78.15 528.6525,81.93 537.1125,81.93 C542.2725,81.93 547.1925,80.19 551.8725,76.71 C552.2925,75.87 553.2825,75.45 554.8425,75.45 C556.4025,75.45 558.2925,75.78 560.5125,76.44 C562.2525,78.66 563.1825,79.86 563.3025,80.04 C564.5625,81.36 565.8225,82.02 567.0825,82.02 Z M588.195,80.49 L601.065,67.8 L599.175,66 L590.715,74.64 C588.255,74.34 585.555,73.29 582.615,71.49 L582.615,71.49 L582.615,70.41 L599.175,53.94 C598.215,50.82 596.34,48.345 593.55,46.515 C590.76,44.685 587.685,43.8 584.325,43.86 L584.325,43.86 L575.325,48.27 L575.325,70.77 L571.545,72.66 C579.105,77.94 584.655,80.55 588.195,80.49 L588.195,80.49 Z M582.615,66.09 L582.615,49.17 C587.175,50.19 590.145,52.89 591.525,57.27 L591.525,57.27 L582.615,66.09 Z M626.6775,81.12 L633.9675,77.52 L627.7575,73.11 L627.7575,52.95 C627.7575,50.25 626.8875,48.045 625.1475,46.335 C623.4075,44.625 621.1875,43.8 618.4875,43.86 C614.8875,45.96 612.1875,47.49 610.3875,48.45 L610.3875,48.45 L605.5275,43.59 L598.3275,47.19 L604.9875,53.94 L605.0775,72.12 L601.5675,73.83 L608.4975,80.85 L615.5175,77.34 L612.2775,73.29 L612.2775,50.61 L615.6075,48.81 C618.8475,49.41 620.4675,51.51 620.4675,55.11 L620.4675,55.11 L620.4675,72.12 L616.6875,74.01 L626.6775,81.12 Z M649.77,80.49 L662.64,67.8 L660.75,66 L652.29,74.64 C649.83,74.34 647.13,73.29 644.19,71.49 L644.19,71.49 L644.19,70.41 L660.75,53.94 C659.79,50.82 657.915,48.345 655.125,46.515 C652.335,44.685 649.26,43.8 645.9,43.86 L645.9,43.86 L636.9,48.27 L636.9,70.77 L633.12,72.66 C640.68,77.94 646.23,80.55 649.77,80.49 L649.77,80.49 Z M644.19,66.09 L644.19,49.17 C648.75,50.19 651.72,52.89 653.1,57.27 L653.1,57.27 L644.19,66.09 Z M673.2225,80.94 L680.6025,77.25 L674.5725,73.2 L674.5725,51.33 L676.5525,50.07 C679.1925,51.09 681.0825,53.04 682.2225,55.92 L682.2225,55.92 L689.1525,52.5 C687.7125,48.06 684.7725,45.24 680.3325,44.04 C677.2125,46.2 674.9025,47.79 673.4025,48.81 L673.4025,48.81 L668.0025,43.59 L660.4425,47.28 L667.2825,54.12 L667.2825,71.94 L663.1425,74.01 L673.2225,80.94 Z M701.715,80.76 C703.515,80.76 706.635,79.62 711.075,77.34 L711.075,77.34 L715.665,80.67 L722.955,76.98 L716.025,72.03 L716.025,43.86 L708.825,47.55 L708.825,47.91 C707.625,46.71 705.795,45.45 703.335,44.13 C698.595,46.41 695.055,48.15 692.715,49.35 L692.715,49.35 L692.715,72.21 L689.835,73.65 C692.715,75.75 694.725,77.22 695.865,78.06 C698.445,79.86 700.395,80.76 701.715,80.76 Z M705.675,75.63 C705.375,75.63 703.485,74.4 700.005,71.94 L700.005,71.94 L700.005,50.16 C704.385,52.68 707.325,55.02 708.825,57.18 L708.825,57.18 L708.825,74.37 C707.685,75.21 706.635,75.63 705.675,75.63 Z M735.6975,82.11 L750.0075,74.19 L747.6675,72.48 L740.3775,76.53 L736.1475,73.92 L736.2375,48.18 L746.1375,48.18 L746.0475,44.49 L736.2375,44.49 L736.2375,25.59 L728.9475,29.19 L728.9475,44.58 L719.1375,44.49 L719.2275,48.27 L728.9475,48.27 L728.9475,72.03 L723.9975,74.55 L735.6975,82.11 Z M763.11,80.49 C765.57,80.49 768.09,79.65 770.67,77.97 C773.61,75.93 775.8,74.37 777.24,73.29 L777.24,73.29 L777.33,52.32 C775.47,50.34 773.88,48.69 772.56,47.37 C770.4,45.27 768.45,44.22 766.71,44.22 C764.85,44.22 762.54,45.18 759.78,47.1 C758.28,48.18 756.21,49.71 753.57,51.69 L753.57,51.69 L753.48,71.04 L750.06,72.75 L760.68,80.13 C761.52,80.37 762.33,80.49 763.11,80.49 Z M767.7,75.9 C766.86,75.9 764.55,74.43 760.77,71.49 L760.77,71.49 L760.77,50.25 C761.37,49.83 761.97,49.62 762.57,49.62 C763.59,49.62 764.895,50.46 766.485,52.14 C768.075,53.82 769.26,55.08 770.04,55.92 L770.04,55.92 L770.04,74.73 C769.2,75.51 768.42,75.9 767.7,75.9 Z M792.8625,80.94 L800.2425,77.25 L794.2125,73.2 L794.2125,51.33 L796.1925,50.07 C798.8325,51.09 800.7225,53.04 801.8625,55.92 L801.8625,55.92 L808.7925,52.5 C807.3525,48.06 804.4125,45.24 799.9725,44.04 C796.8525,46.2 794.5425,47.79 793.0425,48.81 L793.0425,48.81 L787.6425,43.59 L780.0825,47.28 L786.9225,54.12 L786.9225,71.94 L782.7825,74.01 L792.8625,80.94 Z" transform="translate(-1 1)"/>
</svg>
